<?xml version="1.0" standalone="no"?>
<!DOCTYPE svg PUBLIC "-//W3C//DTD SVG 20010904//EN"
 "http://www.w3.org/TR/2001/REC-SVG-20010904/DTD/svg10.dtd">
<svg version="1.0" xmlns="http://www.w3.org/2000/svg"
 width="512.000000pt" height="512.000000pt" viewBox="0 0 512.000000 512.000000"
 preserveAspectRatio="xMidYMid meet">
<metadata>
Created by potrace 1.16, written by Peter Selinger 2001-2019
</metadata>
<g transform="translate(0.000000,512.000000) scale(0.100000,-0.100000)"
fill="#000000" stroke="none">
<path d="M1200 4960 c-136 -7 -219 -32 -311 -92 -123 -79 -217 -203 -262 -343
l-22 -70 0 -1895 0 -1895 22 -70 c59 -186 204 -339 386 -407 l62 -23 1450 -3
c1060 -2 1465 0 1505 8 171 36 342 171 418 331 22 46 46 107 52 134 9 37 14
368 17 1296 5 1278 -1 1559 -31 1616 -24 45 -1367 1381 -1401 1393 -16 6 -88
15 -160 20 -145 10 -1545 10 -1725 0z m1640 -932 l0 -613 23 -40 c14 -26 37
-48 67 -62 l44 -23 609 0 609 0 -4 -1282 c-5 -1431 1 -1329 -74 -1417 -48 -56
-106 -88 -184 -101 -46 -8 -463 -10 -1415 -8 l-1350 3 -56 26 c-68 32 -124 87
-153 148 l-21 46 0 1855 0 1855 21 46 c40 86 128 153 223 169 25 4 409 8 854
9 l807 1 0 -612z m720 -23 l385 -385 -388 0 -387 0 0 385 c0 212 1 385 3 385
1 0 175 -173 387 -385z"/>
<path d="M1512 2860 c-48 -30 -72 -75 -72 -140 0 -65 24 -110 72 -140 32 -20
53 -20 1048 -20 995 0 1016 0 1048 20 48 30 72 75 72 140 0 65 -24 110 -72
140 -32 20 -53 20 -1048 20 -995 0 -1016 0 -1048 -20z"/>
<path d="M1512 2060 c-48 -30 -72 -75 -72 -140 0 -65 24 -110 72 -140 32 -20
53 -20 1048 -20 995 0 1016 0 1048 20 48 30 72 75 72 140 0 65 -24 110 -72
140 -32 20 -53 20 -1048 20 -995 0 -1016 0 -1048 -20z"/>
<path d="M1512 1260 c-48 -30 -72 -75 -72 -140 0 -65 24 -110 72 -140 32 -19
52 -20 568 -20 516 0 536 1 568 20 48 30 72 75 72 140 0 65 -24 110 -72 140
-32 19 -52 20 -568 20 -516 0 -536 -1 -568 -20z"/>
</g>
</svg>
