<?xml version="1.0" standalone="no"?>
<!DOCTYPE svg PUBLIC "-//W3C//DTD SVG 20010904//EN"
 "http://www.w3.org/TR/2001/REC-SVG-20010904/DTD/svg10.dtd">
<svg version="1.0" xmlns="http://www.w3.org/2000/svg"
 width="512.000000pt" height="512.000000pt" viewBox="0 0 512.000000 512.000000"
 preserveAspectRatio="xMidYMid meet">

<g transform="translate(0.000000,512.000000) scale(0.100000,-0.100000)"
fill="#000000" stroke="none">
<path d="M1300 4283 c0 -33 88 -858 95 -890 l5 -22 708 -4 707 -3 70 -23 c152
-51 303 -145 389 -243 l43 -50 5 56 c8 91 17 96 170 96 70 0 128 2 128 4 0 2
27 250 60 551 33 301 60 549 60 551 0 2 -549 4 -1220 4 l-1220 0 0 -27z"/>
<path d="M2327 2323 c-22 -25 -22 -40 8 -233 14 -89 25 -164 25 -165 0 -2 -90
-5 -200 -7 l-200 -3 -255 -255 -255 -255 -255 255 -255 255 -243 0 c-226 0
-245 -1 -287 -21 -62 -29 -112 -83 -134 -144 -46 -128 21 -269 154 -323 l55
-22 975 -5 974 -5 52 -330 c28 -181 70 -445 93 -585 22 -140 41 -258 41 -262
0 -5 -575 -8 -1279 -8 -1260 0 -1279 0 -1304 -20 -13 -11 -28 -31 -31 -45 -7
-29 15 -79 39 -89 22 -8 5008 -8 5030 0 24 10 46 60 39 89 -3 14 -18 34 -31
45 -24 19 -42 20 -279 20 l-254 0 0 22 c0 12 70 480 156 1040 184 1198 182
1073 21 1066 -172 -7 -238 -55 -338 -247 -96 -185 -184 -281 -344 -373 -144
-83 -291 -113 -507 -105 -269 9 -455 88 -613 259 -67 72 -95 114 -152 231 -51
104 -108 169 -178 205 -41 21 -67 27 -150 30 -89 4 -102 2 -118 -15z m1308
-1097 c75 -19 126 -49 179 -102 166 -169 145 -439 -47 -580 -229 -169 -562
-32 -606 251 -18 121 25 250 113 333 60 57 95 77 168 96 68 19 130 19 193 2z"/>
</g>
</svg>
