<?xml version="1.0" standalone="no"?>
<!DOCTYPE svg PUBLIC "-//W3C//DTD SVG 20010904//EN"
 "http://www.w3.org/TR/2001/REC-SVG-20010904/DTD/svg10.dtd">
<svg version="1.0" xmlns="http://www.w3.org/2000/svg"
 width="512.000000pt" height="512.000000pt" viewBox="0 0 512.000000 512.000000"
 preserveAspectRatio="xMidYMid meet">
<metadata>
Created by potrace 1.16, written by Peter Selinger 2001-2019
</metadata>
<g transform="translate(0.000000,512.000000) scale(0.100000,-0.100000)"
fill="#000000" stroke="none">
<path d="M2398 5097 c-114 -39 -166 -84 -320 -273 -140 -174 -175 -204 -232
-204 -15 0 -111 23 -214 51 -104 28 -220 53 -262 56 -227 17 -450 -143 -504
-363 -8 -32 -20 -151 -26 -264 -12 -225 -20 -258 -76 -295 -17 -12 -107 -49
-200 -84 -241 -91 -301 -128 -373 -231 -64 -91 -83 -150 -89 -270 -6 -149 12
-197 163 -429 109 -169 119 -188 119 -231 0 -43 -10 -62 -119 -231 -151 -232
-169 -280 -163 -429 6 -120 25 -179 89 -270 72 -103 132 -140 373 -231 93 -35
183 -72 200 -84 56 -37 64 -70 76 -295 6 -113 18 -232 26 -264 54 -220 277
-380 504 -363 42 3 158 28 262 56 103 28 199 51 214 51 57 0 92 -30 233 -205
155 -191 212 -239 328 -275 88 -27 218 -27 306 0 116 36 173 84 328 275 141
175 176 205 234 205 15 0 111 -23 213 -51 109 -29 218 -53 262 -56 235 -17
458 151 508 382 6 28 16 140 22 250 12 214 21 251 70 287 14 10 108 50 210 89
207 79 247 99 308 159 99 95 143 198 150 345 6 143 -13 194 -163 424 -158 244
-158 218 0 462 150 230 169 281 163 424 -6 118 -23 175 -85 267 -58 89 -134
145 -265 195 -57 22 -147 57 -200 77 -111 43 -145 66 -164 111 -8 19 -17 113
-24 231 -6 109 -15 222 -21 251 -44 223 -277 397 -509 380 -43 -3 -154 -27
-261 -56 -103 -28 -199 -51 -214 -51 -58 0 -92 30 -234 205 -155 191 -212 239
-328 275 -93 29 -226 27 -315 -3z m-390 -1669 c64 -24 139 -94 172 -163 21
-42 25 -64 25 -140 0 -78 -4 -97 -27 -140 -33 -64 -89 -120 -153 -153 -43 -23
-62 -27 -140 -27 -106 0 -163 23 -231 90 -68 68 -89 124 -89 235 0 79 4 102
23 137 50 95 131 158 232 179 64 14 114 9 188 -18z m1344 6 c37 -19 75 -72 83
-116 15 -83 36 -60 -804 -901 -432 -433 -803 -799 -823 -813 -52 -37 -103 -41
-158 -12 -61 32 -90 77 -90 143 0 42 6 60 29 91 16 21 382 391 813 822 617
617 792 786 824 797 41 15 81 12 126 -11z m-92 -1245 c114 -61 175 -162 175
-289 -2 -291 -350 -435 -555 -230 -66 66 -95 138 -94 235 0 67 5 89 27 132 37
72 77 114 138 148 71 38 102 45 182 40 51 -3 81 -11 127 -36z"/>
</g>
</svg>
