<?xml version="1.0" standalone="no"?>
<!DOCTYPE svg PUBLIC "-//W3C//DTD SVG 20010904//EN"
 "http://www.w3.org/TR/2001/REC-SVG-20010904/DTD/svg10.dtd">
<svg version="1.0" xmlns="http://www.w3.org/2000/svg"
 width="512.000000pt" height="512.000000pt" viewBox="0 0 512.000000 512.000000"
 preserveAspectRatio="xMidYMid meet">
<metadata>
Created by potrace 1.16, written by Peter Selinger 2001-2019
</metadata>
<g transform="translate(0.000000,512.000000) scale(0.100000,-0.100000)"
fill="#000000" stroke="none">
<path d="M583 4141 c-104 -38 -180 -107 -231 -211 l-27 -55 0 -1275 0 -1275
29 -60 c38 -77 114 -153 191 -191 l60 -29 1955 0 1955 0 60 29 c77 38 153 114
191 191 l29 60 0 1275 0 1275 -29 60 c-38 77 -114 153 -191 191 l-60 29 -1940
2 c-1872 2 -1942 2 -1992 -16z m3887 -243 c33 -17 51 -35 68 -68 l22 -45 -2
-1202 c-3 -1196 -3 -1202 -24 -1229 -11 -15 -33 -37 -48 -48 l-27 -21 -1899 0
-1899 0 -27 21 c-15 11 -37 33 -48 48 -21 27 -21 33 -24 1229 l-2 1202 22 45
c17 33 35 51 68 68 l44 22 1866 0 1866 0 44 -22z"/>
<path d="M1915 3266 c-190 -37 -355 -134 -472 -276 -62 -75 -135 -215 -160
-310 -25 -90 -24 -309 0 -400 133 -494 689 -743 1137 -509 41 21 88 50 105 63
27 21 28 25 15 42 -14 17 -14 18 2 6 24 -19 58 6 130 97 69 86 117 176 150
281 20 64 23 96 23 220 0 124 -3 156 -23 220 -33 105 -81 195 -150 281 -72 91
-106 116 -130 97 -15 -12 -16 -11 -3 5 12 15 12 20 -3 35 -27 31 -187 109
-266 132 -97 27 -260 34 -355 16z"/>
</g>
</svg>
