<svg data-v-17182645="" xmlns="http://www.w3.org/2000/svg" width="31.469" height="31.471"><path d="m638.487 569.326-3.8-3.8a3.147 3.147 0 0 0-4.446 0l-1.726 1.726a1.567 1.567 0 0 1-1.115.461 1.564 1.564 0 0 1-1.115-.461l-7.484-7.49a1.576 1.576 0 0 1 0-2.231l1.726-1.726a3.148 3.148 0 0 0 0-4.447l-3.8-3.785a3.144 3.144 0 0 0-4.441 0l-1.385 1.374a10.153 10.153 0 0 0 0 14.344l11.858 11.864a10.138 10.138 0 0 0 14.344 0l1.382-1.382a3.147 3.147 0 0 0 .002-4.447zm-24.594-19.536.305-.3a.434.434 0 0 1 .309-.128.438.438 0 0 1 .311.129l3.8 3.785a.439.439 0 0 1 0 .619l-.31.31zm-1.076 11.586a7.4 7.4 0 0 1-.775-9.61l4.392 4.392a4.29 4.29 0 0 0 .455 5.52l7.484 7.49a4.288 4.288 0 0 0 5.519.455l4.392 4.392a7.392 7.392 0 0 1-9.61-.775zm23.883 10.172a.434.434 0 0 1-.128.31l-.31.309-4.418-4.418.31-.31a.439.439 0 0 1 .619 0l3.8 3.8a.434.434 0 0 1 .127.309z" transform="translate(-607.937 -546.654)" style="fill: rgb(255, 255, 255);"></path></svg>