<?xml version="1.0" standalone="no"?>
<!DOCTYPE svg PUBLIC "-//W3C//DTD SVG 20010904//EN"
 "http://www.w3.org/TR/2001/REC-SVG-20010904/DTD/svg10.dtd">
<svg version="1.0" xmlns="http://www.w3.org/2000/svg"
 width="512.000000pt" height="512.000000pt" viewBox="0 0 512.000000 512.000000"
 preserveAspectRatio="xMidYMid meet">
<metadata>
Created by potrace 1.16, written by Peter Selinger 2001-2019
</metadata>
<g transform="translate(0.000000,512.000000) scale(0.100000,-0.100000)"
fill="#000000" stroke="none">
<path d="M3196 3324 c-229 -41 -391 -146 -467 -300 -32 -65 -34 -74 -34 -179
0 -103 2 -113 30 -164 48 -87 126 -149 305 -241 180 -92 230 -135 230 -195 0
-26 -8 -43 -34 -68 -49 -49 -110 -67 -230 -67 -122 0 -206 17 -327 65 -50 20
-92 35 -94 33 -2 -2 -15 -71 -30 -153 -14 -83 -28 -160 -30 -172 -4 -19 3 -24
58 -42 153 -51 405 -74 572 -52 111 15 250 60 327 107 71 43 150 136 192 224
29 60 31 73 31 175 0 130 -16 175 -91 255 -56 60 -129 107 -287 184 -135 66
-197 117 -197 162 0 40 23 70 73 97 38 20 56 22 182 22 131 -1 146 -3 230 -32
49 -18 93 -29 96 -25 3 4 18 68 33 142 14 74 29 144 32 156 5 18 -3 23 -68 42
-152 44 -347 54 -502 26z"/>
<path d="M2130 3283 c0 -8 -248 -1410 -255 -1440 l-5 -23 215 0 c133 0 215 4
215 10 0 10 236 1387 246 1433 l6 27 -211 0 c-116 0 -211 -3 -211 -7z"/>
<path d="M4325 3271 c-23 -10 -48 -29 -56 -42 -17 -26 -619 -1363 -627 -1391
-4 -17 11 -18 220 -18 l224 0 39 120 39 120 257 0 257 0 23 -120 23 -120 198
0 c152 0 198 3 198 13 0 6 -75 337 -167 734 l-168 723 -210 0 c-182 0 -215 -3
-250 -19z m180 -468 c4 -27 28 -145 54 -263 l47 -215 -154 -3 c-85 -1 -157 0
-159 2 -7 6 189 526 198 526 4 0 10 -21 14 -47z"/>
<path d="M1537 3272 c-3 -4 -61 -144 -130 -312 -155 -379 -270 -650 -274 -646
-2 2 -10 45 -18 95 -17 105 -60 205 -134 315 -54 82 -188 226 -263 284 -56 42
-167 112 -179 112 -21 0 7 -113 163 -670 93 -333 171 -613 174 -622 5 -16 25
-18 230 -18 l225 0 21 48 c11 26 149 333 306 682 157 349 295 659 308 688 l24
52 -225 0 c-123 0 -226 -3 -228 -8z"/>
</g>
</svg>
