<?xml version="1.0" standalone="no"?>
<!DOCTYPE svg PUBLIC "-//W3C//DTD SVG 20010904//EN"
 "http://www.w3.org/TR/2001/REC-SVG-20010904/DTD/svg10.dtd">
<svg version="1.0" xmlns="http://www.w3.org/2000/svg"
 width="512.000000pt" height="512.000000pt" viewBox="0 0 512.000000 512.000000"
 preserveAspectRatio="xMidYMid meet">

<g transform="translate(0.000000,512.000000) scale(0.100000,-0.100000)"
fill="#000000" stroke="none">
<path d="M2265 4998 c-413 -46 -846 -222 -1202 -490 -126 -94 -357 -325 -451
-451 -274 -366 -445 -792 -492 -1226 -15 -134 -15 -408 0 -542 28 -262 114
-560 230 -797 131 -268 266 -458 475 -667 211 -211 405 -349 670 -476 218
-104 437 -174 675 -215 128 -21 503 -30 652 -15 453 47 909 234 1279 526 109
86 323 306 407 418 272 362 445 791 492 1222 14 129 14 421 0 550 -47 431
-219 858 -492 1222 -83 112 -297 331 -407 417 -368 291 -814 477 -1263 525
-115 13 -459 12 -573 -1z m587 -512 c845 -130 1503 -790 1635 -1641 23 -148
23 -422 0 -570 -170 -1096 -1206 -1834 -2286 -1629 -823 156 -1456 822 -1572
1654 -19 135 -17 410 4 547 127 825 761 1480 1576 1628 204 37 444 41 643 11z"/>
<path d="M1925 3623 c-203 -6 -478 -24 -527 -34 -128 -27 -229 -104 -278 -213
-70 -154 -90 -331 -90 -811 0 -192 5 -402 10 -465 34 -379 127 -527 362 -576
113 -24 476 -34 1218 -34 985 0 1129 11 1249 91 71 47 105 90 142 178 61 145
79 330 79 801 0 471 -18 656 -79 801 -37 88 -71 131 -142 178 -87 58 -154 70
-467 81 -235 8 -1232 11 -1477 3z m643 -858 c221 -110 402 -202 402 -205 0 -4
-743 -376 -812 -408 -5 -2 -8 182 -8 408 0 226 3 410 8 408 4 -2 188 -93 410
-203z"/>
</g>
</svg>
